<svg xmlns="http://www.w3.org/2000/svg" viewBox="0 0 600 200" width="100%" height="100%">
  <g transform="translate(20, 20)">
    <!-- Bubble Outline -->
    <path d="M 230,130 C 150,130 90,80 90,10 C 90,-40 140,-80 230,-80 L 300,-80 C 350,-80 390,-40 390,10 L 390,80 C 390,130 350,150 280,150 L 210,170 L 220,130 Z" fill="none" stroke="#0A1A44" stroke-width="12" stroke-linejoin="round" />
    
    <!-- Main F shape -->
    <path d="M 220,100 C 180,90 180,20 220,-30 L 320,-30 L 320,0 L 250,0 C 230,0 230,30 250,30 L 300,30 L 290,60 L 240,60 C 240,80 250,100 270,100 L 330,100 L 310,130 L 250,130 C 230,130 220,110 220,100 Z" fill="#0A1A44" />
    
    <!-- Right side Pills -->
    <!-- Green -->
    <g transform="translate(370, -60)">
      <rect width="100" height="30" rx="15" fill="#22C55E" />
      <rect x="25" y="15" width="6" height="8" rx="1" fill="white" />
      <rect x="40" y="10" width="6" height="13" rx="1" fill="white" />
      <rect x="55" y="5" width="6" height="18" rx="1" fill="white" />
    </g>
    
    <!-- Blue -->
    <g transform="translate(350, -15)">
      <rect width="120" height="30" rx="15" fill="#2563EB" />
      <rect x="35" y="6" width="20" height="16" rx="2" fill="none" stroke="white" stroke-width="2" />
      <rect x="40" y="3" width="3" height="6" rx="1" fill="white" />
      <rect x="48" y="3" width="3" height="6" rx="1" fill="white" />
      <line x1="35" y1="12" x2="55" y2="12" stroke="white" stroke-width="1.5" />
    </g>
    
    <!-- Purple -->
    <g transform="translate(340, 30)">
      <rect width="130" height="30" rx="15" fill="#8B5CF6" />
      <rect x="45" y="8" width="22" height="14" rx="2" fill="none" stroke="white" stroke-width="1.5" />
      <line x1="45" y1="13" x2="67" y2="13" stroke="white" stroke-width="3" />
      <rect x="48" y="17" width="6" height="2" rx="1" fill="white" />
    </g>
  </g>
  
  <!-- Text -->
  <text x="280" y="185" font-family="-apple-system, BlinkMacSystemFont, 'Segoe UI', Roboto, Helvetica, Arial, sans-serif" font-weight="900" font-size="52" fill="#0A1A44" text-anchor="middle" letter-spacing="-1">Fugleman</text>
</svg>
